<svg width="448.7000004800001" height="102.20096848" xmlns="http://www.w3.org/2000/svg">

 <g>
  <title>background</title>
  <rect fill="none" id="canvas_background" height="402" width="582" y="-1" x="-1"/>
 </g>
 <g>
  <title>Layer 1</title>
  <path fill="#b64926" fill-rule="nonzero" id="path2524" d="m389.9707,77.93456l-7.94434,-15.89355l-7.9541,15.89355l15.89844,0zm-178.1543,-38.0371l-15.89355,7.94432l15.89355,7.94923l0,-15.89355zm-143.59374,17.9248l7.94922,15.89355l7.9541,-15.89355l-15.90332,0zm363.53515,-33.85743c-2.65625,0 -5.23926,2.02149 -5.23926,5.09278c0,3.2959 2.65625,5.16114 5.23926,5.16114c2.88087,0 5.35157,-1.93848 5.35157,-5.04884c0,-3.18359 -2.58302,-5.20508 -5.31739,-5.20508l-0.03418,0zm-21.89941,16.25l0,-6.21093l13.21289,0c-2.3584,-2.21192 -2.3584,-5.1709 -2.3584,-6.03515c0,-4.33594 3.11035,-10.21485 10.97169,-10.21485c7.48535,0 11.23046,5.2002 11.23046,10.47851c0,2.92481 -1.4209,5.1709 -2.91993,6.03027l2.20215,0l0,5.95215l-32.33886,0zm22.05078,20.84473c1.9043,0 5.2002,-1.4209 5.2002,-5.16601c0,-2.20703 -1.0498,-3.55957 -2.31934,-4.3457c-0.82519,-0.52247 -1.72364,-0.78614 -2.66114,-0.85938c-0.93261,-0.07324 -1.86522,0.1123 -2.72949,0.52246c-1.4209,0.67383 -2.88086,2.09473 -2.88086,4.72168c0,3.55957 2.99318,5.12695 5.34669,5.12695l0.04394,0zm10.28808,-16.58691l0,6.21582l-2.24608,0c2.03125,1.12305 2.96386,3.70605 2.96386,6.13769c0,6.5918 -5.16601,10.44922 -11.12305,10.44922c-6.81153,0 -11.0791,-4.90235 -11.0791,-10.44922c0,-3.40331 1.64551,-5.3125 2.91992,-6.13769l-2.20702,0l0,-6.21582l20.77147,0zm-32.33886,33.46191l0,-6.21581l32.33886,0l0,6.21581l-32.33886,0"/>
  <path fill="#589575" fill-rule="nonzero" id="path2526" d="m275.43945,86.33788l4.63868,10.07813c22.0166,-16.84083 26.06933,-35.64941 11.73827,-55.80566c-11.35254,-15.97169 1.14259,-30.17579 4.90235,-33.86719l-8.42774,-6.74316c-5.50781,6.04491 -19.96093,24.93652 -7.32421,43.93553c12.24609,18.40333 10.97656,28.37892 -5.52735,42.40235zm-171.0498,0l4.63867,10.07813c22.01661,-16.84083 26.06933,-35.64941 11.7334,-55.80566c-11.34766,-15.97169 1.14258,-30.17579 4.90234,-33.86719l-8.42285,-6.74316c-5.51269,6.04491 -19.96582,24.93652 -7.31933,43.93553c12.24121,18.40333 10.97168,28.37892 -5.53223,42.40235zm291.57715,-68.58398l-13.94044,24.15038l-13.95018,-24.15038l-11.34767,0l25.29785,43.81836l25.29787,-43.81836l-11.35743,0zm-227.38281,3.41308c-3.97461,-2.33398 -8.84278,-3.41308 -15.32228,-3.41308l-14.20897,0l0,60.18066l11.35741,0l0,-48.82813l2.85156,0c7.86134,0 13.25197,1.93848 13.25197,9.00392c0,6.59667 -6.49415,9.4873 -14.01857,9.72167c-0.22948,0.00489 -1.07421,0.00489 -1.63573,0.00976l0,0l7.54395,10.77638c3.73046,-0.65918 7.08007,-1.87013 9.87792,-3.58399c0.20508,-0.13184 0.41015,-0.27344 0.61524,-0.41015c5.708,-3.77441 8.9746,-9.75099 8.9746,-16.51367c0,-7.41212 -3.30078,-13.42774 -9.2871,-16.94337zm89.90234,33.45704c5.70312,-3.77441 8.96972,-9.75099 8.96972,-16.51367c0,-7.41212 -3.30077,-13.42774 -9.29199,-16.94337c-3.96483,-2.33398 -8.83788,-3.41308 -15.31738,-3.41308l-14.20898,0l0,60.18066l11.35741,0l0,-48.82813l2.85157,0c7.86133,0 13.25683,1.93848 13.25683,9.00392c0,6.59667 -6.49413,9.4873 -14.01855,9.72167c-0.23926,0.00489 -1.07422,0.00489 -1.63573,0.00976l0,0l21.06932,30.09278l13.28614,0l-16.31836,-23.31054zm76.71387,-6.78224l21.06933,-30.08788l-13.29102,0l-21.06445,30.08788l21.06445,30.09278l13.29102,0l-21.06933,-30.09278zm-13.74024,-30.08788l-11.35253,0l0,60.18066l11.35253,0l0,-60.18066zm-296.3623,30.08788l21.06933,-30.08788l-13.28613,0l-21.06933,30.08788l21.06933,30.09278l13.28613,0l-21.06933,-30.09278zm-13.74024,-30.08788l-11.35742,0l0,60.18066l11.35742,0l0,-60.18066zm208.52539,11.35253l0,-11.35253l-35.76172,0l0,60.18066l35.76172,0l0,-11.35254l-24.41406,0l0,-37.47559l24.41406,0zm-114.57031,48.82813l-11.35742,0l-17.7832,-38.13476l-17.77832,38.13476l-11.36231,0l29.14063,-62.48535l29.14062,62.48535"/>
 </g>
</svg>